# xmcd
#
# Track frame offsets: 
#        150
#        15325
#        32690
#        46888
#        68611
#        85366
#        102574
#        122688
#        135820
#        152592
#        168017
#        192104
#        212847
#        227834
#
# Disc length: 3265 seconds
#
# Revision: 0
# Processed by: cddbd v1.5.2PL0 Copyright (c) Steve Scherf et al.
# Submitted via: ExactAudioCopyFreeDBPlugin 1.0
#
DISCID=a60cbf0e
DTITLE=Gunter Gabriel - Temporausch
DYEAR=1900
DGENRE=Country
TTITLE0=Truck Stop, Tom Astor und ich
TTITLE1=(Wir sind) Die Fahrer
TTITLE2=Den Rocker kriegst Du nicht mehr aus mir raus
TTITLE3=Dieselknecht
TTITLE4=Wir sind die an denen alles h‰ngen bleibt
TTITLE5=Mein alter VW
TTITLE6=Ich bin ein Straﬂenhund
TTITLE7=Ich fahre nie mehr blau
TTITLE8=Liebst Du 'nen arbeitslosen Star
TTITLE9=Dankwart und Leila
TTITLE10=Wenn ich nur ein Trucker w‰r
TTITLE11=Ich lieb' die Bullen
TTITLE12=Lass mich Dein Freund sein heut Nacht
TTITLE13=Temporausch
EXTD=
EXTT0=
EXTT1=
EXTT2=
EXTT3=
EXTT4=
EXTT5=
EXTT6=
EXTT7=
EXTT8=
EXTT9=
EXTT10=
EXTT11=
EXTT12=
EXTT13=
PLAYORDER=
